<?xml version="1.0" encoding="utf-8"?>
<!-- Generator: Adobe Illustrator 18.1.1, SVG Export Plug-In . SVG Version: 6.00 Build 0)  -->
<svg version="1.1" id="Line_7" xmlns="http://www.w3.org/2000/svg" xmlns:xlink="http://www.w3.org/1999/xlink" x="0px" y="0px"
	 viewBox="306 4.3 348.2 551.3" enable-background="new 306 4.3 348.2 551.3" xml:space="preserve">
<path d="M643.1,456.2l-62.4-77.3L565,314.4l5-8.3c2.9-4.9,4.9-10,5.9-15.1c0.2-0.7,0.2-1.5,0.2-2.3v-1.1c0.1-0.8,0.1-1.8,0-3.2
	c2.3,0.4,4.6,0.5,6.9,0.5c9.1,0,17.8-2.2,24.7-6c0.1-0.1,0.2-0.1,0.3-0.2c11.1-6.8,18.8-17.5,21.9-30.1c3-12.6,0.9-25.6-5.9-36.7
	c-0.1-0.2-0.2-0.4-0.4-0.5l-33.4-48.5c-2.5-4-5.5-8.3-10.8-12.6c-18.9-15.5-47.6-38.9-49.9-40.8c-0.1-0.1-0.3-0.2-0.4-0.3
	c-0.4-0.4-0.8-0.6-1.3-1c-6-5-16.6-13.7-32.8-16.2c4.8-11,6.5-23.2,4.5-35.2c-2.3-14.5-9.8-27.8-21-37.4
	C467.3,9.6,452.9,4.3,438,4.3c-3.2,0-6.5,0-10.7,1c-16.6,2.8-30.6,11.5-40.4,25.1c-10.2,13.8-14,29.9-11.3,46.8
	c3.3,21,17.1,38.4,35.9,46.8c-0.7,1.3-1.4,2.6-2,3.9l-32.6,40.9L329,199c-11.4,7.2-18.9,17.6-21.8,29.9c-2.9,12.9-0.8,25.9,5.9,36.7
	c8.1,14,24.2,23.1,41.1,23.1c7.9,0,16.3-2.2,25-6.6c0.4-0.2,0.8-0.5,1.2-0.6l46.9-30.8l14.9,58.7l-25.1,63
	c-4.2,7.6-6.4,15.1-6.4,22.2L407,505.4c-0.9,13,4,26.2,13.3,35.4c9.5,9.5,21.6,14.8,34,14.8h1.6c26.4,0,47.8-20.2,48.8-46.1v-0.1
	l2-67.3l60.8,75.6c0,0,0,0.1,0.1,0.1c9.2,11.3,23.3,17.9,37.8,17.9c10.8,0,21.7-3.8,30.7-10.8l0.1-0.1c10.4-8.3,17-20.5,18-33.2
	C654.9,479,650.9,466.1,643.1,456.2z M596.5,492.7l-68.5-85.3c-0.3-0.4-0.5-0.6-0.8-0.9c-0.6-0.6-1.2-1.7-1.6-3l-3.9-16.7l15.5-25.8
	l7.2,30.6c0.5,3.5,2.4,6.5,4.1,8.5l64.6,79.8l0.1,0.1c1.6,1.9,2.4,4.7,2,7c-0.4,2.6-2,5.4-4.4,7.3c-2.2,1.8-4.6,2.2-6.2,2.2
	C601.4,496.5,598.5,495.1,596.5,492.7z M454.1,517.5c-3.8,0-5.5-1.6-6.5-2.7c-0.2-0.3-0.5-0.5-0.7-0.7c-1.6-1.6-2.7-3.6-2.7-7.8
	l3.8-110.1c2.2-7.6,18.9-50.1,30.5-78.8c0.5-1.2,0.7-2.5,0.8-3.8v-0.2c0.3-1.5,0.8-4.8-0.5-8.5L443,162.3
	c-1.8-7.3-1.7-11.8-1.1-14.7c1.8,11.8,8,22.9,17.8,30.9l0.1,0.1l52.8,41.6l15.6,22.8c0.5,2.1,1.3,5.2,2.5,9.9
	c2,8.1,6.8,26.7,7.1,31.1c0,0.2,0,0.4,0,0.5c0,0.1-0.1,0.3-0.4,0.6c-0.1,0.2-0.2,0.3-0.3,0.5l-51.8,85.9c-0.3,0.4-0.5,0.8-0.7,1.2
	c-15,25.9-15.4,27.6-15.4,30.8l-3.8,103.3c-0.5,6.3-4.8,10.5-10.7,10.5L454.1,517.5L454.1,517.5z M354.3,250.6
	c-3.7,0-6.6-1.7-8.3-4.8c0,0,0-0.1-0.1-0.1c-2.3-4-2.4-6.2-1.9-8.3c1-3.8,2.5-5.4,4.5-6.6c0.1-0.1,0.2-0.1,0.3-0.2l51.1-31.3
	c0.7-0.5,1.5-1,2.1-1.6c0.4-0.4,0.8-0.8,9.1-10.9l5.9,23.2c-1.5,1.5-3.3,3.6-4.2,4.3L359.9,249C357.8,250.1,355.5,250.6,354.3,250.6
	z M434.9,43.4c0.5-0.2,0.5-0.2,2.5-0.2c11.9,0,21.7,8.3,23.8,20.1c2,13.4-7,25.9-20.2,28c-0.6,0.1-1.2,0.3-1.8,0.5
	c-0.5,0.2-0.5,0.2-2.5,0.2c-12,0-21.8-8.3-23.8-20.2c-0.6-4-1.1-11.6,3.8-17.7c4.5-5.6,10.3-9.2,16.6-10.2
	C433.7,43.7,434.3,43.6,434.9,43.4z M588.8,244.5c-0.1,0-0.2,0.1-0.2,0.1c-1.6,1-3.3,1.5-5.6,1.5c-4.8,0-7.9-3-9.5-5.6
	c0-0.1-0.1-0.1-0.1-0.2l-31.3-45c-0.4-0.5-0.8-1.1-1.3-1.6l-1.6-1.6c-0.3-0.3-0.6-0.6-1-0.9l-54.9-43.5c-0.2-0.2-0.4-0.3-0.5-0.5
	c-2.7-1.8-3.4-4.7-3.6-6.1c-0.4-2.7,0.4-5.5,2-7.6c1.8-2.1,4-3.5,6.3-4c4.6-0.1,8,0.6,10.7,2.4l57.8,46c0.3,0.2,0.5,0.4,0.7,0.5
	c0.5,0.4,1.5,1.9,2.2,2.9c0,0.1,0.1,0.1,0.1,0.2l33.2,48.3C595.2,235.3,593.6,241.8,588.8,244.5z M530.1,109.9
	c-0.2-0.2-0.3-0.3-0.5-0.4C529.9,109.6,530.1,109.8,530.1,109.9z"/>
</svg>
