<?xml version="1.0" encoding="utf-8"?>
<!-- Generator: Adobe Illustrator 17.1.0, SVG Export Plug-In . SVG Version: 6.00 Build 0)  -->
<!DOCTYPE svg PUBLIC "-//W3C//DTD SVG 1.1//EN" "http://www.w3.org/Graphics/SVG/1.1/DTD/svg11.dtd">
<svg version="1.1" id="Line_1" xmlns="http://www.w3.org/2000/svg" xmlns:xlink="http://www.w3.org/1999/xlink" x="0px" y="0px"
	 viewBox="0 0 792 612" enable-background="new 0 0 792 612" xml:space="preserve">
<g>
	<path fill="#231F20" stroke="#FFFFFF" stroke-miterlimit="10" d="M689.3,147.1"/>
	<path fill="#231F20" d="M235.4,267.4H89.5V147.9h145.9V267.4z M119.5,237.4h85.9v-59.6h-85.9V237.4z"/>
	<path fill="#231F20" d="M391.7,267.4H245.8V147.9h145.9V267.4z M275.8,237.4h85.9v-59.6h-85.9V237.4z"/>
	<path fill="#231F20" d="M548,267.4H402.1V147.9H548V267.4z M432.1,237.4H518v-59.6h-85.9V237.4z"/>
	<path fill="#231F20" d="M704.3,267.4H558.4V147.9h145.9V267.4z M588.4,237.4h85.9v-59.6h-85.9V237.4z"/>
	<path fill="#231F20" d="M760.8,379.4V75.6h-733v303.8H6.7v62.2h21.1v35.1H146c3.9,16.1,13.1,30.8,25.9,41.7
		c13.8,11.6,31,18,48.5,18s34.7-6.4,48.5-18c12.9-10.9,22-25.6,25.9-41.7h213c3.9,16.1,13.1,30.8,25.9,41.7c13.8,11.6,31,18,48.5,18
		s34.7-6.4,48.5-18c12.9-10.9,22-25.6,25.9-41.7H759v-35.1h26.3v-62.2H760.8z M582.1,424c21.3,0,37.4,16.1,37.4,37.4
		c0,9.5-3.9,18.9-10.8,26c-7.1,7.3-16.6,11.4-26.6,11.4c-21.3,0-37.4-16.1-37.4-37.4C544.8,440.1,560.8,424,582.1,424z M257.8,461.4
		c0,20.3-17.1,37.4-37.4,37.4c-21.3,0-37.4-16.1-37.4-37.4c0-21.3,16.1-37.4,37.4-37.4C241.7,424,257.8,440.1,257.8,461.4z
		 M726.7,109.7v332.9h-68.4c-3.9-16.1-13.1-30.8-25.9-41.7c-13.8-11.6-31-18-48.5-18s-34.7,6.4-48.5,18
		c-12.9,10.9-22,25.6-25.9,41.7H294.8c-3.9-16.1-13.1-30.8-25.9-41.7c-13.8-11.6-31-18-48.5-18s-34.7,6.4-48.5,18
		c-12.9,10.9-22,25.6-25.9,41.7H61.8V109.7H726.7z"/>
</g>
</svg>
