<?xml version="1.0" encoding="utf-8"?>
<!-- Generator: Adobe Illustrator 18.1.1, SVG Export Plug-In . SVG Version: 6.00 Build 0)  -->
<svg version="1.1" id="Line_7" xmlns="http://www.w3.org/2000/svg" xmlns:xlink="http://www.w3.org/1999/xlink" x="0px" y="0px"
	 viewBox="0 0 360 432" enable-background="new 0 0 360 432" xml:space="preserve">
<g>
	<path fill="#231F20" stroke="#231F20" stroke-width="8" stroke-miterlimit="10" d="M312.9,144"/>
	<path fill="#231F20" d="M107.2,198.5H41.1v-54.2h66.1V198.5z M54.7,184.9h38.9v-27H54.7C54.7,157.9,54.7,184.9,54.7,184.9z"/>
	<path fill="#231F20" d="M178.1,198.5h-66.1v-54.2h66.1V198.5z M125.5,184.9h38.9v-27h-38.9V184.9z"/>
	<path fill="#231F20" d="M248.9,198.5h-66.1v-54.2h66.1V198.5z M196.4,184.9h38.9v-27h-38.9V184.9z"/>
	<path fill="#231F20" d="M319.7,198.5h-66.1v-54.2h66.1L319.7,198.5L319.7,198.5z M267.2,184.9h38.9v-27h-38.9V184.9z"/>
	<path fill="#231F20" stroke="#231F20" stroke-width="8" stroke-miterlimit="10" d="M345.3,249.3V111.6H13.1v137.7H3.6v28.2h9.6
		v15.9h53.6c1.8,7.3,5.9,14,11.7,18.9c6.3,5.3,14.1,8.2,22,8.2s15.7-2.9,22-8.2c5.8-4.9,10-11.6,11.7-18.9h96.5
		c1.8,7.3,5.9,14,11.7,18.9c6.3,5.3,14.1,8.2,22,8.2c7.9,0,15.7-2.9,22-8.2c5.8-4.9,10-11.6,11.7-18.9h46.4v-15.9h11.9v-28.2H345.3z
		 M264.3,269.5c9.7,0,17,7.3,17,17c0,4.3-1.8,8.6-4.9,11.8c-3.2,3.3-7.5,5.2-12.1,5.2c-9.7,0-17-7.3-17-17
		C247.4,276.8,254.7,269.5,264.3,269.5z M117.4,286.4c0,9.2-7.8,17-17,17c-9.7,0-17-7.3-17-17c0-9.7,7.3-17,17-17
		S117.4,276.8,117.4,286.4z M329.9,127v150.9h-31c-1.8-7.3-5.9-14-11.7-18.9c-6.3-5.3-14.1-8.2-22-8.2c-7.9,0-15.7,2.9-22,8.2
		c-5.8,4.9-10,11.6-11.7,18.9h-97.3c-1.8-7.3-5.9-14-11.7-18.9c-6.3-5.3-14.1-8.2-22-8.2s-15.7,2.9-22,8.2
		c-5.8,4.9-10,11.6-11.7,18.9H28.5V127H329.9z"/>
</g>
</svg>
