<?xml version="1.0" encoding="utf-8"?>
<!-- Generator: Adobe Illustrator 18.1.0, SVG Export Plug-In . SVG Version: 6.00 Build 0)  -->
<!DOCTYPE svg PUBLIC "-//W3C//DTD SVG 1.1//EN" "http://www.w3.org/Graphics/SVG/1.1/DTD/svg11.dtd">
<svg version="1.1" id="Line_18" xmlns="http://www.w3.org/2000/svg" xmlns:xlink="http://www.w3.org/1999/xlink" x="0px" y="0px"
	 viewBox="0 0 29.5 36" enable-background="new 0 0 29.5 36" xml:space="preserve">
<g id="_x33__4_">
	<g>
		<path d="M25.5,0.5H4.1c-2,0-3.6,1.6-3.6,3.6v21.4c0,2,1.6,3.6,3.6,3.6h21.4c2,0,3.6-1.6,3.6-3.6V4.1C29,2.1,27.4,0.5,25.5,0.5z
			 M27.3,25.5c0,1-0.8,1.8-1.8,1.8H4.1c-1,0-1.8-0.8-1.8-1.8V4.1c0-1,0.8-1.8,1.8-1.8h21.4c1,0,1.8,0.8,1.8,1.8V25.5z"/>
	</g>
</g>
<rect x="6" y="6.8" fill="none" stroke="#000000" stroke-width="2" stroke-miterlimit="10" width="17.5" height="6.2"/>
<circle fill="none" stroke="#000000" stroke-width="2" stroke-miterlimit="10" cx="9.2" cy="20.7" r="2.3"/>
<circle fill="none" stroke="#000000" stroke-width="2" stroke-miterlimit="10" cx="19.9" cy="20.7" r="2.3"/>
<line fill="none" stroke="#000000" stroke-width="2" stroke-miterlimit="10" x1="7.8" y1="28.2" x2="0.5" y2="35.7"/>
<line fill="none" stroke="#000000" stroke-width="2" stroke-miterlimit="10" x1="28.4" y1="35.7" x2="21.1" y2="28.2"/>
</svg>
