<?xml version="1.0" encoding="utf-8"?>
<!-- Generator: Adobe Illustrator 18.1.0, SVG Export Plug-In . SVG Version: 6.00 Build 0)  -->
<!DOCTYPE svg PUBLIC "-//W3C//DTD SVG 1.1//EN" "http://www.w3.org/Graphics/SVG/1.1/DTD/svg11.dtd">
<svg version="1.1" id="Line_1" xmlns="http://www.w3.org/2000/svg" xmlns:xlink="http://www.w3.org/1999/xlink" x="0px" y="0px"
	 viewBox="0 0 45.1 27" enable-background="new 0 0 45.1 27" xml:space="preserve">
<g>
	<path fill="#231F20" stroke="#FFFFFF" stroke-miterlimit="10" d="M39.2,4.4"/>
	<rect x="5.9" y="5.3" fill="none" stroke="#231F20" stroke-width="2" stroke-miterlimit="10" width="6.6" height="5.1"/>
	<rect x="14.8" y="5.3" fill="none" stroke="#231F20" stroke-width="2" stroke-miterlimit="10" width="6.6" height="5.1"/>
	<rect x="23.7" y="5.3" fill="none" stroke="#231F20" stroke-width="2" stroke-miterlimit="10" width="6.6" height="5.1"/>
	<rect x="32.6" y="5.3" fill="none" stroke="#231F20" stroke-width="2" stroke-miterlimit="10" width="6.6" height="5.1"/>
	<path fill="#231F20" d="M43.1,17.8V0.5H1.7v17.3H0.5V21h1.2v2h6.7c0.4,1.9,2.1,3.4,4.1,3.4c2,0,3.7-1.5,4.1-3.4H29
		c0.4,1.9,2.1,3.4,4.1,3.4c2,0,3.7-1.5,4.1-3.4h5.8v-2h1.5v-3.2H43.1z M12.5,24.6c-1.3,0-2.3-1-2.3-2.3c0-1.3,1-2.3,2.3-2.3
		c1.3,0,2.3,1,2.3,2.3C14.8,23.5,13.8,24.6,12.5,24.6z M33.1,24.6c-1.3,0-2.3-1-2.3-2.3c0-1.3,1-2.3,2.3-2.3c1.3,0,2.3,1,2.3,2.3
		C35.4,23.5,34.4,24.6,33.1,24.6z M41.5,21.4h-4.2c-0.4-1.9-2.1-3.4-4.1-3.4c-2,0-3.7,1.5-4.1,3.4H16.6c-0.4-1.9-2.1-3.4-4.1-3.4
		c-2,0-3.7,1.5-4.1,3.4H3.3V2.1h38.2V21.4z"/>
</g>
</svg>
