<?xml version="1.0" encoding="utf-8"?>
<!-- Generator: Adobe Illustrator 18.1.0, SVG Export Plug-In . SVG Version: 6.00 Build 0)  -->
<!DOCTYPE svg PUBLIC "-//W3C//DTD SVG 1.1//EN" "http://www.w3.org/Graphics/SVG/1.1/DTD/svg11.dtd">
<svg version="1.1" id="Line_7" xmlns="http://www.w3.org/2000/svg" xmlns:xlink="http://www.w3.org/1999/xlink" x="0px" y="0px"
	 viewBox="0 0 25 33" enable-background="new 0 0 25 33" xml:space="preserve">
<g id="_x31__15_">
	<g>
		<path d="M12.5,0.5c-6.6,0-12,5.4-12,12c0,5,10,20,12,20c2,0,12-15,12-20C24.5,5.9,19.1,0.5,12.5,0.5z M12.5,29.5
			c-1.7,0-10-12.8-10-17c0-5.5,4.5-10,10-10c5.5,0,10,4.5,10,10C22.5,16.6,14.1,29.5,12.5,29.5z M12.5,7.5c-2.8,0-5,2.2-5,5
			c0,2.8,2.2,5,5,5c2.8,0,5-2.2,5-5C17.5,9.7,15.3,7.5,12.5,7.5z M12.5,15.5c-1.7,0-3-1.3-3-3c0-1.7,1.3-3,3-3c1.7,0,3,1.3,3,3
			C15.5,14.2,14.2,15.5,12.5,15.5z"/>
	</g>
</g>
</svg>
