<?xml version="1.0" encoding="utf-8"?>
<!-- Generator: Adobe Illustrator 18.1.0, SVG Export Plug-In . SVG Version: 6.00 Build 0)  -->
<!DOCTYPE svg PUBLIC "-//W3C//DTD SVG 1.1//EN" "http://www.w3.org/Graphics/SVG/1.1/DTD/svg11.dtd">
<svg version="1.1" id="Line_1" xmlns="http://www.w3.org/2000/svg" xmlns:xlink="http://www.w3.org/1999/xlink" x="0px" y="0px"
	 viewBox="0 0 10 32" enable-background="new 0 0 10 32" xml:space="preserve">
<g id="_x31_0_21_">
	<g>
		<path d="M8,0H2C0.8,0,0,0.8,0,2v22.2l4,7.1c0.6,0.9,1.4,0.9,2,0l4-7.1V2C10,0.8,9.2,0,8,0z M5,29.3L2,24h6L5,29.3z M8,22
			c-2.1,0-5.4,0-6,0V9h6V22z M8,7H2V3c0-1,0-1,1-1h4c1,0,1,0,1,1V7z"/>
	</g>
</g>
</svg>
