<?xml version="1.0" encoding="utf-8"?>
<!-- Generator: Adobe Illustrator 18.1.0, SVG Export Plug-In . SVG Version: 6.00 Build 0)  -->
<!DOCTYPE svg PUBLIC "-//W3C//DTD SVG 1.1//EN" "http://www.w3.org/Graphics/SVG/1.1/DTD/svg11.dtd">
<svg version="1.1" xmlns="http://www.w3.org/2000/svg" xmlns:xlink="http://www.w3.org/1999/xlink" x="0px" y="0px"
	 viewBox="0 0 33 33" enable-background="new 0 0 33 33" xml:space="preserve">
<g id="Line_20">
	<g id="_x34__48_">
		<g>
			<path d="M16.5,0.5c-8.8,0-16,7.2-16,16c0,8.8,7.2,16,16,16c8.8,0,16-7.2,16-16C32.5,7.7,25.3,0.5,16.5,0.5z M16.5,30.5
				c-7.7,0-14-6.3-14-14c0-7.7,6.3-14,14-14c7.7,0,14,6.3,14,14C30.5,24.2,24.2,30.5,16.5,30.5z"/>
		</g>
	</g>
</g>
<g id="Line_16">
	<circle fill="none" stroke="#000000" stroke-width="2" stroke-miterlimit="10" cx="16.5" cy="16.5" r="9.4"/>
	<circle fill="none" stroke="#000000" stroke-width="2" stroke-miterlimit="10" cx="16.5" cy="16.5" r="3.9"/>
</g>
</svg>
