<?xml version="1.0" encoding="utf-8"?>
<!-- Generator: Adobe Illustrator 18.1.0, SVG Export Plug-In . SVG Version: 6.00 Build 0)  -->
<!DOCTYPE svg PUBLIC "-//W3C//DTD SVG 1.1//EN" "http://www.w3.org/Graphics/SVG/1.1/DTD/svg11.dtd">
<svg version="1.1" id="Line_13" xmlns="http://www.w3.org/2000/svg" xmlns:xlink="http://www.w3.org/1999/xlink" x="0px" y="0px"
	 viewBox="0 0 32 32" enable-background="new 0 0 32 32" xml:space="preserve">
<g id="_x39__9_">
	<g>
		<path d="M8,22c-1.1,0-2-0.9-2-2l23-2c0,0,3-12.1,3-13c0-0.6-0.4-1-1-1H6V2h1c0.6,0,1-0.4,1-1c0-0.6-0.4-1-1-1H1C0.4,0,0,0.4,0,1
			c0,0.6,0.4,1,1,1h3v18c0,2.2,1.8,4,4,4h2h12h9c0,0,0-1,0-2H8z M6,6h24l-2.6,10.2L6,18V6z M18,28c0,2.2,1.8,4,4,4c2.2,0,4-1.8,4-4
			c0-2.2-1.8-4-4-4C19.8,24,18,25.8,18,28z M22,26c1.1,0,2,0.9,2,2s-0.9,2-2,2c-1.1,0-2-0.9-2-2S20.9,26,22,26z M6,28
			c0,2.2,1.8,4,4,4c2.2,0,4-1.8,4-4c0-2.2-1.8-4-4-4C7.8,24,6,25.8,6,28z M10,26c1.1,0,2,0.9,2,2s-0.9,2-2,2c-1.1,0-2-0.9-2-2
			S8.9,26,10,26z"/>
	</g>
</g>
</svg>
