<?xml version="1.0" encoding="utf-8"?>
<!-- Generator: Adobe Illustrator 18.1.0, SVG Export Plug-In . SVG Version: 6.00 Build 0)  -->
<!DOCTYPE svg PUBLIC "-//W3C//DTD SVG 1.1//EN" "http://www.w3.org/Graphics/SVG/1.1/DTD/svg11.dtd">
<svg version="1.1" id="Line_13" xmlns="http://www.w3.org/2000/svg" xmlns:xlink="http://www.w3.org/1999/xlink" x="0px" y="0px"
	 viewBox="0 0 20.3 32.4" enable-background="new 0 0 20.3 32.4" xml:space="preserve">
<polygon fill="none" stroke="#000000" stroke-width="2" stroke-miterlimit="10" points="17.2,32.4 3.1,32.4 0.6,18.4 19.7,18.4 "/>
<path fill="none" stroke="#000000" stroke-width="2" stroke-miterlimit="10" d="M2.9,9.5c1.2,3,3.5,5.2,6.3,6.3
	c1.4-2.7,1.7-5.9,0.5-8.9c-1.2-3-3.5-5.2-6.3-6.3C2,3.3,1.7,6.5,2.9,9.5z"/>
<path fill="none" stroke="#000000" stroke-width="2" stroke-miterlimit="10" d="M15.6,6.6c-1.3,0.9-2.4,2-3,3.5
	c-0.7,1.5-0.8,3-0.6,4.6c1.3-0.9,2.4-2,3-3.5C15.7,9.7,15.9,8.2,15.6,6.6z"/>
<line fill="none" stroke="#000000" stroke-width="2" stroke-miterlimit="10" x1="2.2" y1="24.4" x2="18.2" y2="24.4"/>
</svg>
