<?xml version="1.0" encoding="utf-8"?>
<!-- Generator: Adobe Illustrator 18.1.0, SVG Export Plug-In . SVG Version: 6.00 Build 0)  -->
<!DOCTYPE svg PUBLIC "-//W3C//DTD SVG 1.1//EN" "http://www.w3.org/Graphics/SVG/1.1/DTD/svg11.dtd">
<svg version="1.1" id="Line_7" xmlns="http://www.w3.org/2000/svg" xmlns:xlink="http://www.w3.org/1999/xlink" x="0px" y="0px"
	 viewBox="0 0 32 26" enable-background="new 0 0 32 26" xml:space="preserve">
<g id="_x38__15_">
	<g>
		<path d="M31,24H1c-0.6,0-1,0.4-1,1c0,0.6,0.4,1,1,1h30c0.6,0,1-0.4,1-1C32,24.4,31.6,24,31,24z M17,4V2h2c0.6,0,1-0.4,1-1
			c0-0.6-0.4-1-1-1h-6c-0.6,0-1,0.4-1,1c0,0.6,0.4,1,1,1h2c0,0,0,2.1,0,2C6.6,4.5,0,11.5,0,20c0,0.8,0,0.4,0,1c0,0.6,0.4,1,1,1h30
			c0.6,0,1-0.4,1-1c0-0.6,0-0.1,0-1C32,11.5,25.4,4.5,17,4z M2,20C2,12.3,8.3,6,16,6c7.7,0,14,6.3,14,14H2z"/>
	</g>
</g>
</svg>
