<?xml version="1.0" encoding="utf-8"?>
<!-- Generator: Adobe Illustrator 18.1.0, SVG Export Plug-In . SVG Version: 6.00 Build 0)  -->
<!DOCTYPE svg PUBLIC "-//W3C//DTD SVG 1.1//EN" "http://www.w3.org/Graphics/SVG/1.1/DTD/svg11.dtd">
<svg version="1.1" id="Line_5" xmlns="http://www.w3.org/2000/svg" xmlns:xlink="http://www.w3.org/1999/xlink" x="0px" y="0px"
	 viewBox="0 0 30 30" enable-background="new 0 0 30 30" xml:space="preserve">
<g id="_x31_0_17_">
	<g>
		<path d="M29.2,5.4c-0.5,0.6-1.3,1.3-2.5,2.4c-1.3,1.3-3.1,1.3-4.4,0c-1.3-1.3-1.3-3.1,0-4.3c1.2-1.2,2.4-2.6,2.4-2.6
			c-3.4-1.6-7.6-1-10.4,1.8c-2.6,2.6-3.3,6.2-2.2,9.5L1.2,23c-1.6,1.6-1.6,4.2,0,5.8c1.6,1.6,4.2,1.6,5.8,0l10.9-10.8
			c3.2,1.1,6.9,0.3,9.5-2.2C30.1,12.9,30.7,8.8,29.2,5.4z M25.9,14.3c-2.3,2.3-5.8,2.7-8.5,1.2L5.6,27.3c-0.8,0.8-2.1,0.8-2.9,0
			c-0.8-0.8-0.8-2.1,0-2.9l11.9-11.8c-1.5-2.7-1.1-6.2,1.2-8.5c1.4-1.4,3.2-2,5-2.1c-1.9,2-1.9,5.2,0.1,7.1c2,2,5.1,2,7.1,0.1
			C27.9,11.1,27.3,12.9,25.9,14.3z"/>
	</g>
</g>
</svg>
