<?xml version="1.0" encoding="utf-8"?>
<!-- Generator: Adobe Illustrator 18.1.0, SVG Export Plug-In . SVG Version: 6.00 Build 0)  -->
<!DOCTYPE svg PUBLIC "-//W3C//DTD SVG 1.1//EN" "http://www.w3.org/Graphics/SVG/1.1/DTD/svg11.dtd">
<svg version="1.1" id="Layer_1" xmlns="http://www.w3.org/2000/svg" xmlns:xlink="http://www.w3.org/1999/xlink" x="0px" y="0px"
	 viewBox="0 0 118.7 57.2" enable-background="new 0 0 118.7 57.2" xml:space="preserve">
<path d="M113.2,10.6C113.2,10.6,113.2,10.6,113.2,10.6c-1.8-0.6-6.4-1.9-8.6-2.4c-1.1-4.4-5-7.7-9.7-7.7H23.8
	c-4.7,0-8.7,3.3-9.7,7.7c-1.9,0.5-6.5,1.7-8.4,2.4c-0.1,0-0.2,0.1-0.3,0.2c-2.7,0.2-4.9,2.5-4.9,5.2v11.9c0,8.8,5.9,16.2,14,18.5
	L12.1,56c0,0.2,0,0.4,0.1,0.5c0.1,0.1,0.3,0.2,0.5,0.2h1.2c0.2,0,0.4-0.1,0.5-0.2l7.1-9.4c0,0,0,0,0,0h75.9l7,9.4
	c0.1,0.2,0.3,0.3,0.5,0.3h1.2c0.2,0,0.4-0.1,0.5-0.2c0.1-0.1,0.2-0.3,0.1-0.5l-2.4-9.7c8-2.3,14-9.7,14-18.5v-12
	C118.2,13,116,10.8,113.2,10.6 M110.6,11.1c-1.8,0.9-3,2.6-3,4.7v9.8c-0.7-0.9-1.6-1.7-2.7-2.1c0,0,0,0,0-0.1V10.5
	c0-0.3,0-0.7-0.1-1C106.5,9.9,108.8,10.6,110.6,11.1 M16,24.4h39.5c1.2,0,2.3,0.4,3.2,1.2v2.6H11.2C11.8,25.9,13.7,24.4,16,24.4
	 M107.5,28.1H59.9v-2.5c0.9-0.8,2.1-1.3,3.3-1.3h39.5C105,24.4,106.9,25.9,107.5,28.1 M58.6,29.4v7.2H19.7c-4.3,0-7.8-3.1-8.5-7.2
	H58.6z M59.9,29.4h47.6c-0.7,4.1-4.3,7.2-8.5,7.2H59.9V29.4z M23.8,1.7h71.1c4.9,0,8.8,4,8.8,8.8v12.7c-0.3-0.1-0.7-0.1-1-0.1H63.2
	c-1.4,0-2.8,0.5-3.9,1.4c-1.1-0.9-2.5-1.4-3.9-1.4H16c-0.4,0-0.7,0-1,0.1V10.5c0-0.6,0.1-1.2,0.2-1.8c0,0,0,0,0,0
	C16,4.8,19.5,1.7,23.8,1.7 M13.7,10.5v13c-1.1,0.4-2,1.2-2.7,2.1V16c0-2.1-1.3-4-3.1-4.8c1.9-0.6,4.4-1.2,5.9-1.6
	C13.8,9.9,13.7,10.2,13.7,10.5 M13.6,55.5L13.6,55.5l2.1-8.9c1.3,0.3,2.7,0.4,4.1,0.4h0.2L13.6,55.5z M105.2,55.5L105.2,55.5
	l-6.3-8.4H99c1.4,0,2.7-0.2,4.1-0.4L105.2,55.5z M116.9,27.8c0,9.9-8.1,18-18,18H19.7c-9.9,0-18-8.1-18-18V16c0-2.2,1.8-4,4-4
	s4,1.8,4,4v11.9c0,5.5,4.4,9.9,9.9,9.9H99c5.5,0,9.9-4.4,9.9-9.9v-12c0-2.2,1.8-4,4-4c2.2,0,4,1.8,4,4V27.8z"/>
<path d="M29.6,13.5c0.6,0,1-0.5,1-1s-0.5-1-1-1c-0.6,0-1,0.5-1,1S29,13.5,29.6,13.5"/>
<path d="M30.3,8.2c0-0.9-0.3-1.7-0.7-2.3c-0.4,0.7-0.7,1.5-0.7,2.3c0,0.9,0.3,1.7,0.7,2.3C30.1,9.9,30.3,9.1,30.3,8.2"/>
<path d="M28.9,16.8c0,0.9,0.3,1.7,0.7,2.3c0.4-0.7,0.7-1.5,0.7-2.3c0-0.9-0.3-1.7-0.7-2.3C29.2,15.1,28.9,15.9,28.9,16.8"/>
<path d="M36.2,12.5c-0.7-0.4-1.5-0.7-2.3-0.7s-1.7,0.3-2.3,0.7c0.7,0.4,1.5,0.7,2.3,0.7S35.6,12.9,36.2,12.5"/>
<path d="M27.7,12.5c-0.7-0.4-1.5-0.7-2.3-0.7s-1.7,0.3-2.3,0.7c0.7,0.4,1.5,0.7,2.3,0.7S27,12.9,27.7,12.5"/>
<path d="M49.4,13.5c0.6,0,1-0.5,1-1s-0.5-1-1-1c-0.6,0-1,0.5-1,1S48.9,13.5,49.4,13.5"/>
<path d="M50.1,8.2c0-0.9-0.3-1.7-0.7-2.3c-0.4,0.7-0.7,1.5-0.7,2.3c0,0.9,0.3,1.7,0.7,2.3C49.9,9.9,50.1,9.1,50.1,8.2"/>
<path d="M48.7,16.8c0,0.9,0.3,1.7,0.7,2.3c0.4-0.7,0.7-1.5,0.7-2.3c0-0.9-0.3-1.7-0.7-2.3C49,15.1,48.7,15.9,48.7,16.8"/>
<path d="M56,12.5c-0.7-0.4-1.5-0.7-2.3-0.7c-0.9,0-1.7,0.3-2.3,0.7c0.7,0.4,1.5,0.7,2.3,0.7C54.6,13.2,55.4,12.9,56,12.5"/>
<path d="M47.5,12.5c-0.7-0.4-1.5-0.7-2.3-0.7c-0.9,0-1.7,0.3-2.3,0.7c0.7,0.4,1.5,0.7,2.3,0.7C46,13.2,46.8,12.9,47.5,12.5"/>
<path d="M69.2,13.5c0.6,0,1-0.5,1-1s-0.5-1-1-1c-0.6,0-1,0.5-1,1S68.7,13.5,69.2,13.5"/>
<path d="M70,8.2c0-0.9-0.3-1.7-0.7-2.3c-0.4,0.7-0.7,1.5-0.7,2.3c0,0.9,0.3,1.7,0.7,2.3C69.7,9.9,70,9.1,70,8.2"/>
<path d="M68.5,16.8c0,0.9,0.3,1.7,0.7,2.3c0.4-0.7,0.7-1.5,0.7-2.3c0-0.9-0.3-1.7-0.7-2.3C68.8,15.1,68.5,15.9,68.5,16.8"/>
<path d="M75.9,12.5c-0.7-0.4-1.5-0.7-2.3-0.7c-0.9,0-1.7,0.3-2.3,0.7c0.7,0.4,1.5,0.7,2.3,0.7C74.4,13.2,75.2,12.9,75.9,12.5"/>
<path d="M67.3,12.5c-0.7-0.4-1.5-0.7-2.3-0.7c-0.9,0-1.7,0.3-2.3,0.7c0.7,0.4,1.5,0.7,2.3,0.7C65.8,13.2,66.6,12.9,67.3,12.5"/>
<path d="M89.1,13.5c0.6,0,1-0.5,1-1s-0.5-1-1-1c-0.6,0-1,0.5-1,1S88.5,13.5,89.1,13.5"/>
<path d="M89.8,8.2c0-0.9-0.3-1.7-0.7-2.3c-0.4,0.7-0.7,1.5-0.7,2.3c0,0.9,0.3,1.7,0.7,2.3C89.5,9.9,89.8,9.1,89.8,8.2"/>
<path d="M88.4,16.8c0,0.9,0.3,1.7,0.7,2.3c0.4-0.7,0.7-1.5,0.7-2.3c0-0.9-0.3-1.7-0.7-2.3C88.6,15.1,88.4,15.9,88.4,16.8"/>
<path d="M95.7,12.5c-0.7-0.4-1.5-0.7-2.3-0.7s-1.7,0.3-2.3,0.7c0.7,0.4,1.5,0.7,2.3,0.7S95,12.9,95.7,12.5"/>
<path d="M87.1,12.5c-0.7-0.4-1.5-0.7-2.3-0.7s-1.7,0.3-2.3,0.7c0.7,0.4,1.5,0.7,2.3,0.7S86.4,12.9,87.1,12.5"/>
</svg>
