<?xml version="1.0" encoding="utf-8"?>
<!-- Generator: Adobe Illustrator 18.1.0, SVG Export Plug-In . SVG Version: 6.00 Build 0)  -->
<!DOCTYPE svg PUBLIC "-//W3C//DTD SVG 1.1//EN" "http://www.w3.org/Graphics/SVG/1.1/DTD/svg11.dtd">
<svg version="1.1" id="Layer_1" xmlns="http://www.w3.org/2000/svg" xmlns:xlink="http://www.w3.org/1999/xlink" x="0px" y="0px"
	 viewBox="0 0 113.5 62.3" enable-background="new 0 0 113.5 62.3" xml:space="preserve">
<path d="M112.9,30c-0.4-1.8-1.5-3.1-3.4-3.9c-1.5-0.7-3.1-0.9-4.8-0.8c0.3-1,0.2-1.9-0.2-2.5c-0.3-0.4-1-0.9-2.3-0.9
	c-0.3,0-0.5,0-0.8,0.1V5.8c0-2.9-2.4-5.3-5.3-5.3H60.6c-1.5,0-2.9,0.6-3.9,1.7c-1-1.1-2.4-1.7-3.9-1.7H17.4c-2.9,0-5.3,2.4-5.3,5.3
	V22c-0.5-0.1-1.1-0.2-1.5-0.2c-1.3,0-2,0.5-2.3,0.9c-0.5,0.6-0.6,1.5-0.3,2.5c-1.4,0-2.8,0.2-4.1,0.8c-1.8,0.8-3,2.2-3.4,3.9
	c-0.5,2.2,0.4,4.7,2.3,6.8c4.1,4.6,9.4,7.9,15.2,9.7v5.6c0,0.3,0.3,0.6,0.6,0.6h0.5l-2,8c0,0.2,0,0.4,0.1,0.5
	c0.1,0.2,0.3,0.2,0.5,0.2h1c0.2,0,0.4-0.1,0.5-0.2l6.5-8.6h60.4l6.4,8.6c0.1,0.2,0.3,0.2,0.5,0.2h1c0.2,0,0.4-0.1,0.5-0.2
	c0.1-0.1,0.2-0.3,0.1-0.5l-1.9-8h0.4c0.3,0,0.6-0.3,0.6-0.6v-5.2c6.4-1.6,12.3-5.1,16.8-10.1C112.5,34.7,113.4,32.2,112.9,30
	 M103.5,23.5c0.4,0.5,0.1,1.7-0.7,3.1c-1,1.6-2.7,3.3-4.7,4.8c-2.8,2.1-5.8,3.4-7.7,3.4c-0.4,0-1-0.1-1.3-0.5
	c-0.4-0.5-0.1-1.7,0.7-3.1c1-1.6,2.7-3.3,4.7-4.8c2.8-2.1,5.8-3.4,7.7-3.4C102.6,23,103.2,23.1,103.5,23.5 M60.6,1.7h35.5
	c2.2,0,4,1.8,4,4v16.3c-1.9,0.5-4.2,1.7-6.4,3.4c-1.9,1.4-3.5,3-4.6,4.6c-1.1,0.2-2.2,0.3-3.2,0.3H57.4V3.4
	C58.1,2.4,59.3,1.7,60.6,1.7 M13.4,5.8c0-2.2,1.8-4,4-4h35.5c1.3,0,2.5,0.6,3.2,1.7v26.9H27.6c-1.4,0-2.7-0.1-4-0.4
	c-1.1-1.5-2.6-3.1-4.5-4.5c-1.9-1.5-3.9-2.5-5.7-3.2V5.8z M9.3,23.5c0.3-0.4,0.9-0.5,1.3-0.5c1.9,0,4.9,1.4,7.7,3.4
	c2,1.5,3.7,3.2,4.7,4.8c0.9,1.4,1.1,2.5,0.7,3.1c-0.3,0.4-0.9,0.5-1.3,0.5c-1.9,0-4.9-1.4-7.7-3.4c-2-1.5-3.7-3.2-4.7-4.8
	C9.2,25.2,8.9,24,9.3,23.5 M4.5,27.2c1.3-0.6,2.6-0.8,4.1-0.7c0.1,0.2,0.3,0.5,0.4,0.7c1.1,1.7,2.8,3.5,5,5.1c3,2.3,6.3,3.7,8.5,3.7
	c1.3,0,2-0.5,2.3-0.9c0.7-0.9,0.6-2.2-0.3-3.7c1,0.1,2.1,0.2,3.1,0.2h58.2c0.8,0,1.6-0.1,2.4-0.1c-0.8,1.5-0.8,2.8-0.2,3.6
	c0.3,0.4,1,0.9,2.3,0.9c2.2,0,5.4-1.4,8.5-3.7c2.1-1.6,3.9-3.4,5-5.1c0.1-0.2,0.3-0.4,0.4-0.6c1.8-0.3,3.3-0.1,4.8,0.6
	c0.7,0.3,1.2,0.7,1.6,1.1c-0.3,0.4-0.6,0.9-0.9,1.3c-6.1,6.8-14.8,10.7-23.8,10.7H27.6c-9.1,0-17.7-3.9-23.8-10.7
	c-0.3-0.4-0.6-0.8-0.9-1.3C3.3,27.9,3.8,27.5,4.5,27.2 M18.7,60l1.8-7.3h3.7L18.7,60z M93.2,60l-5.5-7.3h3.7L93.2,60z M92.5,51.5
	H20.2c0,0,0,0,0,0c-0.1,0-0.2,0-0.3,0h-0.5v-4.7c2.7,0.7,5.5,1.1,8.3,1.1h58.2c2.3,0,4.5-0.2,6.7-0.7V51.5z M109.7,36
	c-6.1,6.8-14.8,10.7-23.8,10.7H27.6c-9.1,0-17.7-3.9-23.8-10.7c-1.6-1.8-2.4-3.9-2-5.7c0.1-0.3,0.2-0.6,0.3-0.8
	c0.2,0.3,0.5,0.7,0.8,1c6.3,7,15.3,11.1,24.7,11.1h58.2c9.4,0,18.4-4,24.7-11.1c0.3-0.3,0.5-0.7,0.8-1c0.1,0.3,0.2,0.6,0.3,0.9
	C112.1,32,111.3,34.2,109.7,36"/>
<path d="M35.5,19.4c1.7,0,3.1-1.4,3.1-3.1c0-1.7-1.4-3.1-3.1-3.1c-1.7,0-3.1,1.4-3.1,3.1C32.3,18,33.7,19.4,35.5,19.4 M35.5,14.4
	c1.1,0,1.9,0.9,1.9,1.9c0,1.1-0.9,1.9-1.9,1.9c-1.1,0-1.9-0.9-1.9-1.9C33.6,15.2,34.4,14.4,35.5,14.4"/>
<path d="M78.1,19.4c1.7,0,3.1-1.4,3.1-3.1c0-1.7-1.4-3.1-3.1-3.1c-1.7,0-3.1,1.4-3.1,3.1C74.9,18,76.3,19.4,78.1,19.4 M78.1,14.4
	c1.1,0,1.9,0.9,1.9,1.9c0,1.1-0.9,1.9-1.9,1.9c-1.1,0-1.9-0.9-1.9-1.9C76.1,15.2,77,14.4,78.1,14.4"/>
</svg>
