<?xml version="1.0" encoding="utf-8"?>
<!-- Generator: Adobe Illustrator 18.1.0, SVG Export Plug-In . SVG Version: 6.00 Build 0)  -->
<!DOCTYPE svg PUBLIC "-//W3C//DTD SVG 1.1//EN" "http://www.w3.org/Graphics/SVG/1.1/DTD/svg11.dtd">
<svg version="1.1" id="Line_13" xmlns="http://www.w3.org/2000/svg" xmlns:xlink="http://www.w3.org/1999/xlink" x="0px" y="0px"
	 viewBox="0 0 26 33" enable-background="new 0 0 26 33" xml:space="preserve">
<g id="_x33__9_">
	<g>
		<path d="M23.5,7.5h-6v-2c0-1.1-0.9-2-2-2h-9v-1c0-1.1-0.9-2-2-2h-2c-1.1,0-2,0.9-2,2v28c0,1.1,0.9,2,2,2h2c1.1,0,2-0.9,2-2v-9h9v1
			c0,1.1,0.9,2,2,2h6c1.1,0,2-0.9,2-2v-13C25.5,8.4,24.6,7.5,23.5,7.5z M4.5,29.5c0,0.6-0.4,1-1,1c-0.6,0-1-0.4-1-1v-26
			c0-0.6,0.4-1,1-1c0.6,0,1,0.4,1,1V29.5z M15.5,18.5c0,0.6-0.4,1-1,1h-8v-14h8c0.6,0,1,0.4,1,1V18.5z M23.5,21.5c0,0.6-0.4,1-1,1
			h-5v-13h5c0.6,0,1,0.4,1,1V21.5z"/>
	</g>
</g>
</svg>
