<?xml version="1.0" encoding="utf-8"?>
<!-- Generator: Adobe Illustrator 18.1.0, SVG Export Plug-In . SVG Version: 6.00 Build 0)  -->
<!DOCTYPE svg PUBLIC "-//W3C//DTD SVG 1.1//EN" "http://www.w3.org/Graphics/SVG/1.1/DTD/svg11.dtd">
<svg version="1.1" id="Line_3" xmlns="http://www.w3.org/2000/svg" xmlns:xlink="http://www.w3.org/1999/xlink" x="0px" y="0px"
	 viewBox="0 0 32 30" enable-background="new 0 0 32 30" xml:space="preserve">
<g id="_x33__19_">
	<g>
		<path d="M28,4h-6V2c0-1.1-0.9-2-2-2h-8c-1.1,0-2,0.9-2,2v2H4C1.8,4,0,5.8,0,8v18c0,2.2,1.8,4,4,4h24c2.2,0,4-1.8,4-4V8
			C32,5.8,30.2,4,28,4z M12,3c0-0.6,0.4-1,1-1h6c0.6,0,1,0.4,1,1v1h-8V3z M30,26c0,1.1-0.9,2-2,2H4c-1.1,0-2-0.9-2-2V15h10.1
			c-0.1,0.3-0.1,0.7-0.1,1c0,2.2,1.8,4,4,4s4-1.8,4-4c0-0.3-0.1-0.7-0.1-1H30V26z M14,16c0-0.4,0.1-0.7,0.3-1h3.4
			c0.2,0.3,0.3,0.6,0.3,1c0,1.1-0.9,2-2,2S14,17.1,14,16z M30,13H2V8c0-1.1,0.9-2,2-2h24c1.1,0,2,0.9,2,2V13z"/>
	</g>
</g>
</svg>
