<?xml version="1.0" encoding="utf-8"?>
<!-- Generator: Adobe Illustrator 18.1.0, SVG Export Plug-In . SVG Version: 6.00 Build 0)  -->
<!DOCTYPE svg PUBLIC "-//W3C//DTD SVG 1.1//EN" "http://www.w3.org/Graphics/SVG/1.1/DTD/svg11.dtd">
<svg version="1.1" id="Line_2" xmlns="http://www.w3.org/2000/svg" xmlns:xlink="http://www.w3.org/1999/xlink" x="0px" y="0px"
	 viewBox="0 0 32 28" enable-background="new 0 0 32 28" xml:space="preserve">
<g id="_x31__20_">
	<g>
		<path d="M31.1,0.9c-1.2-1.1-3-1.1-4.2,0l-17.2,17c-2.1,0-5,0.7-6.3,4.8c-1,2.2-3.5,2.1-3.5,2.1c5.3,5.8,11.4,2.5,12.9,1.1
			c1.2-1.3,1.4-2.8,1.3-4L31.1,5C32.3,3.9,32.3,2,31.1,0.9z M11.5,24.4c-1,0.9-5.4,2.9-8,1c0,0,0.9-0.7,1.6-2.1
			c1.6-4.3,5.7-3.7,5.7-3.7l1.4,1.4C12.2,21,13.2,22.8,11.5,24.4z M13.6,19.6c-0.1-0.1-1.4-1.4-1.4-1.4l2.1-2.1l1.4,1.4L13.6,19.6z
			 M29.7,3.6L17,16.1l-1.4-1.4L28.3,2.2c0.4-0.4,1-0.4,1.4,0C30.1,2.6,30.1,3.2,29.7,3.6z"/>
	</g>
</g>
</svg>
