<?xml version="1.0" encoding="utf-8"?>
<!-- Generator: Adobe Illustrator 18.1.0, SVG Export Plug-In . SVG Version: 6.00 Build 0)  -->
<!DOCTYPE svg PUBLIC "-//W3C//DTD SVG 1.1//EN" "http://www.w3.org/Graphics/SVG/1.1/DTD/svg11.dtd">
<svg version="1.1" id="Line_20" xmlns="http://www.w3.org/2000/svg" xmlns:xlink="http://www.w3.org/1999/xlink" x="0px" y="0px"
	 viewBox="0 0 23.6 31.6" enable-background="new 0 0 23.6 31.6" xml:space="preserve">
<path fill="none" stroke="#000000" stroke-width="2" stroke-miterlimit="10" d="M18.3,21.7c-2.6,0-4.7,2.1-4.7,4.7s2.1,4.7,4.7,4.7
	S23,29,23,26.4S20.9,21.7,18.3,21.7z"/>
<path fill="none" stroke="#000000" stroke-width="2" stroke-miterlimit="10" d="M5.2,21.7c-2.6,0-4.7,2.1-4.7,4.7s2.1,4.7,4.7,4.7
	S10,29,10,26.4S7.8,21.7,5.2,21.7z"/>
<path fill="none" stroke="#000000" stroke-width="2" stroke-miterlimit="10" d="M0.5,9.1h12.1V0.5c0,0,9.9,0.5,10.4,8.6
	c0,0,0.4,9.5-7.6,9.6H6.8C6.8,18.8,0.3,18.3,0.5,9.1z"/>
</svg>
