<?xml version="1.0" encoding="utf-8"?>
<!-- Generator: Adobe Illustrator 18.1.0, SVG Export Plug-In . SVG Version: 6.00 Build 0)  -->
<!DOCTYPE svg PUBLIC "-//W3C//DTD SVG 1.1//EN" "http://www.w3.org/Graphics/SVG/1.1/DTD/svg11.dtd">
<svg version="1.1" id="Line_21" xmlns="http://www.w3.org/2000/svg" xmlns:xlink="http://www.w3.org/1999/xlink" x="0px" y="0px"
	 viewBox="0 0 33 25" enable-background="new 0 0 33 25" xml:space="preserve">
<g id="_x37__1_">
	<g>
		<path d="M23.6,5.5c-1.5-3-4.5-5-8.1-5c-4.7,0-8.6,3.7-9,8.3c-3.5,1-6,4-6,7.7c0,4.3,3.5,7.7,8,8l17,0c3.4-1.5,7-5.6,7-9.5
			C32.5,9.9,28.5,5.8,23.6,5.5z M25.5,22.5h-17c0,0-6-0.6-6-6c0-3,2.7-5.8,6-6c0-4.1,2.7-8,7-8c3.4,0,5.7,2.1,6.5,5
			c5-0.2,8.3,3.7,8.5,7C30.6,17.3,28.2,21,25.5,22.5z"/>
	</g>
</g>
</svg>
