<?xml version="1.0" encoding="utf-8"?>
<!-- Generator: Adobe Illustrator 18.1.0, SVG Export Plug-In . SVG Version: 6.00 Build 0)  -->
<!DOCTYPE svg PUBLIC "-//W3C//DTD SVG 1.1//EN" "http://www.w3.org/Graphics/SVG/1.1/DTD/svg11.dtd">
<svg version="1.1" id="Line_13" xmlns="http://www.w3.org/2000/svg" xmlns:xlink="http://www.w3.org/1999/xlink" x="0px" y="0px"
	 viewBox="0 0 36.8 33.4" enable-background="new 0 0 36.8 33.4" xml:space="preserve">
<g>
	<path fill="none" stroke="#000000" stroke-width="2" stroke-miterlimit="10" d="M7.4,4.7c0,0-6.4-1-6.4,3.5c0,4.5,3.8,3.9,3.8,3.9
		h14.7l10.7-9.8v4.3l5.2,5.7l-3.8,4.5L29,14.9l-2.6,1.9v14c0,0-0.5,1.5-2.4,1.5c-1.9,0-2.1-1.7-2.1-1.7v-9.1H8.7v8.7
		c0,0,0.2,2-2.3,2c-2.5,0-2.3-2-2.3-2V19.7l1.2-1.4l-0.1-6"/>
	<line fill="none" stroke="#000000" stroke-width="2" stroke-miterlimit="10" x1="21" y1="10.4" x2="26.6" y2="16.5"/>
</g>
</svg>
