<?xml version="1.0" encoding="utf-8"?>
<!-- Generator: Adobe Illustrator 18.1.0, SVG Export Plug-In . SVG Version: 6.00 Build 0)  -->
<!DOCTYPE svg PUBLIC "-//W3C//DTD SVG 1.1//EN" "http://www.w3.org/Graphics/SVG/1.1/DTD/svg11.dtd">
<svg version="1.1" id="Line_1" xmlns="http://www.w3.org/2000/svg" xmlns:xlink="http://www.w3.org/1999/xlink" x="0px" y="0px"
	 viewBox="0 0 29.4 26.7" enable-background="new 0 0 29.4 26.7" xml:space="preserve">
<g>
	<line fill="none" stroke="#000000" stroke-width="2" stroke-miterlimit="10" x1="7.4" y1="8" x2="20.2" y2="8"/>
	<line fill="none" stroke="#000000" stroke-width="2" stroke-miterlimit="10" x1="7.4" y1="12.5" x2="20.2" y2="12.5"/>
	<polyline fill="none" stroke="#000000" stroke-width="2" stroke-miterlimit="10" points="1.4,20.8 5.7,18.1 10.2,20.8 14.4,17.3 
		18.3,20.8 22.2,18.1 25.6,20.8 29.1,18.1 	"/>
	<polyline fill="none" stroke="#000000" stroke-width="2" stroke-miterlimit="10" points="0.3,26 4.6,23.3 9.1,26 13.3,22.6 
		17.2,26 21.1,23.3 24.5,26 27.9,23.3 	"/>
	<path fill="none" stroke="#000000" stroke-width="2" stroke-miterlimit="10" d="M11.3,0.5c0,0-4.1,1.3-3.8,4.2v10.6"/>
	<path fill="none" stroke="#000000" stroke-width="2" stroke-miterlimit="10" d="M24.4,0.5c0,0-4.1,1.3-3.8,4.2v10.6"/>
</g>
</svg>
