<?xml version="1.0" encoding="utf-8"?>
<!-- Generator: Adobe Illustrator 18.1.1, SVG Export Plug-In . SVG Version: 6.00 Build 0)  -->
<svg version="1.1" id="Layer_1" xmlns="http://www.w3.org/2000/svg" xmlns:xlink="http://www.w3.org/1999/xlink" x="0px" y="0px"
	 viewBox="0 0 309.2 35.6" enable-background="new 0 0 309.2 35.6" xml:space="preserve">
<path fill="#2C4245" d="M12,12V9.4c0-2.9-1.3-4.2-2.9-4.2C6.7,5.2,6,6.4,6,9v17.6c0,2.6,0.8,3.8,3.2,3.8c2.2,0,2.9-1.2,2.9-3.5v-4.2
	h6v4c0,4.9-2.9,8.9-8.8,8.9c-6.2,0-9.1-4-9.1-8.9V8.9C0,4,2.9,0,9.1,0c6,0,8.8,4.3,8.8,9.5V12H12z"/>
<path fill="#2C4245" d="M21.1,8.9C21.1,4,24,0,30.2,0c6.2,0,9.1,4,9.1,8.9v17.9c0,4.9-2.9,8.9-9.1,8.9c-6.2,0-9.1-4-9.1-8.9V8.9z
	 M27.1,26.6c0,2.6,0.8,3.8,3.2,3.8s3.2-1.2,3.2-3.8V9c0-2.6-0.8-3.8-3.2-3.8S27.1,6.4,27.1,9V26.6z"/>
<path fill="#2C4245" d="M42.8,35.1V0.5h5.5l7.2,19.8h0.1V0.5H61v34.7h-5.2l-7.6-21.6h-0.1v21.6H42.8z"/>
<path fill="#2C4245" d="M64.4,0.5h8.8c6.1,0,9.4,3.4,9.4,10.5v13.7c0,7.1-3.3,10.5-9.4,10.5h-8.8V0.5z M70.3,30.2h2.1
	c3.2,0,4.3-1.2,4.3-4.8V10.2c0-3.6-1.1-4.8-4.3-4.8h-2.1V30.2z"/>
<path fill="#2C4245" d="M86,8.9C86,4,88.9,0,95.1,0c6.2,0,9.1,4,9.1,8.9v17.9c0,4.9-2.9,8.9-9.1,8.9c-6.2,0-9.1-4-9.1-8.9V8.9z
	 M92,26.6c0,2.6,0.8,3.8,3.2,3.8c2.4,0,3.2-1.2,3.2-3.8V9c0-2.6-0.8-3.8-3.2-3.8C92.7,5.2,92,6.4,92,9V26.6z"/>
<path fill="#2C4245" d="M118,9c-0.2-3-1.8-3.8-3.2-3.8c-1.9,0-3,1.2-3,3.4c0,5.9,12.1,8.7,12.1,18.1c0,5.7-3.8,8.9-9.4,8.9
	c-5.5,0-8.7-4.4-8.9-9.6l5.7-0.8c0.2,3.5,1.6,5.2,3.6,5.2c2.1,0,3.5-1.1,3.5-3.2c0-6.9-12.1-8.7-12.1-18.6c0-5.5,3.4-8.6,9.2-8.6
	c4.8,0,7.7,3.5,8.3,8.4L118,9z"/>
<g>
	<path fill="#4AC4DC" d="M139.1,0.5h5.9l-7.2,34.7h-6l-7.2-34.7h5.9l4.3,24h0.1L139.1,0.5z"/>
	<path fill="#4AC4DC" d="M147.7,35.1V0.5h6v34.7H147.7z"/>
</g>
<g>
	<path fill="#4AC4DC" d="M169.8,12V9.4c0-2.9-1.3-4.2-2.9-4.2c-2.4,0-3.2,1.2-3.2,3.8v17.6c0,2.6,0.8,3.8,3.2,3.8
		c2.2,0,2.9-1.2,2.9-3.5v-4.2h6v4c0,4.9-2.9,8.9-8.8,8.9c-6.2,0-9.1-4-9.1-8.9V8.9c0-4.9,2.9-8.9,9.1-8.9c6,0,8.8,4.3,8.8,9.5V12
		H169.8z"/>
</g>
<path fill="#4AC4DC" d="M182.3,5.7h-5.8V0.5h17.5v5.2h-5.8v29.5h-6V5.7z"/>
<path fill="#4AC4DC" d="M195.2,8.9c0-4.9,2.9-8.9,9.1-8.9c6.2,0,9.1,4,9.1,8.9v17.9c0,4.9-2.9,8.9-9.1,8.9c-6.2,0-9.1-4-9.1-8.9V8.9
	z M201.2,26.6c0,2.6,0.8,3.8,3.2,3.8c2.4,0,3.2-1.2,3.2-3.8V9c0-2.6-0.8-3.8-3.2-3.8c-2.4,0-3.2,1.2-3.2,3.8V26.6z"/>
<path fill="#4AC4DC" d="M223.8,35.1h-6V0.5h8.4c6.7,0,10.1,2.8,10.1,10.2c0,5.6-2.2,7.8-4.2,8.7l5,15.7h-6l-4.2-14.4
	c-0.8,0.1-2,0.1-3.1,0.1V35.1z M223.8,16h2.1c3.2,0,4.4-1.2,4.4-5.3c0-4.1-1.2-5.3-4.4-5.3h-2.1V16z"/>
<path fill="#4AC4DC" d="M240.3,35.1V0.5h6v34.7H240.3z"/>
<path fill="#4AC4DC" d="M253.9,35.1h-5.8l6.4-34.7h7.4l6.4,34.7h-5.8l-1.1-7.7H255L253.9,35.1z M255.8,22.3h4.8l-2.4-14.9h-0.1
	L255.8,22.3z"/>
<g>
	<path fill="#BEE5EF" d="M270.2,0.5h8.8c6.4,0,9.2,3.3,9.2,9.2c0,3-1.2,6.1-4.1,7.2c3,1.3,4.8,3.7,4.8,8.2c0,5.7-2.5,10-9.3,10h-9.4
		V0.5z M276.1,14.7h2.2c2.3,0,4-1.5,4-4.4c0-3.2-1.2-4.9-3.9-4.9h-2.3V14.7z M276.1,30.2h2.5c3.2,0,4.3-1.8,4.3-5.3
		c0-3.6-1.3-5.3-4.9-5.3h-1.9V30.2z"/>
</g>
<g>
	<path fill="#BEE5EF" d="M303.3,12V9.4c0-2.9-1.3-4.2-2.9-4.2c-2.4,0-3.2,1.2-3.2,3.8v17.6c0,2.6,0.8,3.8,3.2,3.8
		c2.2,0,2.9-1.2,2.9-3.5v-4.2h6v4c0,4.9-2.9,8.9-8.8,8.9c-6.2,0-9.1-4-9.1-8.9V8.9c0-4.9,2.9-8.9,9.1-8.9c6,0,8.8,4.3,8.8,9.5V12
		H303.3z"/>
</g>
</svg>
